<mxfile host="app.diagrams.net" modified="2024-02-08T03:42:01.369Z" agent="Mozilla/5.0 (Windows NT 10.0; Win64; x64) AppleWebKit/537.36 (KHTML, like Gecko) Chrome/121.0.0.0 Safari/537.36" etag="-4sXjAQdK8_4-IiMPDWC" version="23.1.2" type="device">
  <diagram name="Page-1" id="2YBvvXClWsGukQMizWep">
    <mxGraphModel dx="1169" dy="893" grid="1" gridSize="10" guides="1" tooltips="1" connect="1" arrows="1" fold="1" page="1" pageScale="1" pageWidth="850" pageHeight="1100" math="0" shadow="0">
      <root>
        <mxCell id="0" />
        <mxCell id="1" parent="0" />
        <mxCell id="IcoIcNSvb0qneX0CgcXb-1" value="" style="shape=umlLifeline;perimeter=lifelinePerimeter;whiteSpace=wrap;html=1;container=1;dropTarget=0;collapsible=0;recursiveResize=0;outlineConnect=0;portConstraint=eastwest;newEdgeStyle={&quot;curved&quot;:0,&quot;rounded&quot;:0};participant=umlActor;fillColor=#eb9f4c;" vertex="1" parent="1">
          <mxGeometry x="30" y="120" width="20" height="760" as="geometry" />
        </mxCell>
        <mxCell id="IcoIcNSvb0qneX0CgcXb-2" value="" style="html=1;points=[[0,0,0,0,5],[0,1,0,0,-5],[1,0,0,0,5],[1,1,0,0,-5]];perimeter=orthogonalPerimeter;outlineConnect=0;targetShapes=umlLifeline;portConstraint=eastwest;newEdgeStyle={&quot;curved&quot;:0,&quot;rounded&quot;:0};strokeColor=default;fillColor=#eb9f4c;" vertex="1" parent="IcoIcNSvb0qneX0CgcXb-1">
          <mxGeometry x="5" y="60" width="10" height="670" as="geometry" />
        </mxCell>
        <mxCell id="IcoIcNSvb0qneX0CgcXb-3" value="TaleInfoPage" style="shape=umlLifeline;perimeter=lifelinePerimeter;whiteSpace=wrap;html=1;container=1;dropTarget=0;collapsible=0;recursiveResize=0;outlineConnect=0;portConstraint=eastwest;newEdgeStyle={&quot;curved&quot;:0,&quot;rounded&quot;:0};fillColor=#eb9f4c;" vertex="1" parent="1">
          <mxGeometry x="190" y="120" width="100" height="760" as="geometry" />
        </mxCell>
        <mxCell id="IcoIcNSvb0qneX0CgcXb-4" value="" style="html=1;points=[[0,0,0,0,5],[0,1,0,0,-5],[1,0,0,0,5],[1,1,0,0,-5]];perimeter=orthogonalPerimeter;outlineConnect=0;targetShapes=umlLifeline;portConstraint=eastwest;newEdgeStyle={&quot;curved&quot;:0,&quot;rounded&quot;:0};fillColor=#eb9f4c;" vertex="1" parent="IcoIcNSvb0qneX0CgcXb-3">
          <mxGeometry x="45" y="60" width="10" height="650" as="geometry" />
        </mxCell>
        <mxCell id="IcoIcNSvb0qneX0CgcXb-5" value="MapScreen" style="shape=umlLifeline;perimeter=lifelinePerimeter;whiteSpace=wrap;html=1;container=1;dropTarget=0;collapsible=0;recursiveResize=0;outlineConnect=0;portConstraint=eastwest;newEdgeStyle={&quot;curved&quot;:0,&quot;rounded&quot;:0};fillColor=#eb9f4c;" vertex="1" parent="1">
          <mxGeometry x="590" y="120" width="100" height="760" as="geometry" />
        </mxCell>
        <mxCell id="IcoIcNSvb0qneX0CgcXb-82" value="" style="html=1;points=[[0,0,0,0,5],[0,1,0,0,-5],[1,0,0,0,5],[1,1,0,0,-5]];perimeter=orthogonalPerimeter;outlineConnect=0;targetShapes=umlLifeline;portConstraint=eastwest;newEdgeStyle={&quot;curved&quot;:0,&quot;rounded&quot;:0};fillColor=#eb9f4c;" vertex="1" parent="IcoIcNSvb0qneX0CgcXb-5">
          <mxGeometry x="45" y="460" width="10" height="65" as="geometry" />
        </mxCell>
        <mxCell id="IcoIcNSvb0qneX0CgcXb-93" value="" style="html=1;points=[[0,0,0,0,5],[0,1,0,0,-5],[1,0,0,0,5],[1,1,0,0,-5]];perimeter=orthogonalPerimeter;outlineConnect=0;targetShapes=umlLifeline;portConstraint=eastwest;newEdgeStyle={&quot;curved&quot;:0,&quot;rounded&quot;:0};fillColor=#eb9f4c;" vertex="1" parent="IcoIcNSvb0qneX0CgcXb-5">
          <mxGeometry x="45" y="610" width="10" height="65" as="geometry" />
        </mxCell>
        <mxCell id="IcoIcNSvb0qneX0CgcXb-23" value="GoogleMap" style="shape=umlLifeline;perimeter=lifelinePerimeter;whiteSpace=wrap;html=1;container=1;dropTarget=0;collapsible=0;recursiveResize=0;outlineConnect=0;portConstraint=eastwest;newEdgeStyle={&quot;curved&quot;:0,&quot;rounded&quot;:0};fillColor=#eb9f4c;" vertex="1" parent="1">
          <mxGeometry x="390" y="120" width="100" height="760" as="geometry" />
        </mxCell>
        <mxCell id="IcoIcNSvb0qneX0CgcXb-76" value="" style="html=1;points=[[0,0,0,0,5],[0,1,0,0,-5],[1,0,0,0,5],[1,1,0,0,-5]];perimeter=orthogonalPerimeter;outlineConnect=0;targetShapes=umlLifeline;portConstraint=eastwest;newEdgeStyle={&quot;curved&quot;:0,&quot;rounded&quot;:0};fillColor=#eb9f4c;" vertex="1" parent="IcoIcNSvb0qneX0CgcXb-23">
          <mxGeometry x="45" y="305" width="10" height="65" as="geometry" />
        </mxCell>
        <mxCell id="IcoIcNSvb0qneX0CgcXb-61" style="edgeStyle=orthogonalEdgeStyle;rounded=0;orthogonalLoop=1;jettySize=auto;html=1;curved=0;entryX=0;entryY=0;entryDx=0;entryDy=5;entryPerimeter=0;" edge="1" parent="IcoIcNSvb0qneX0CgcXb-23" target="IcoIcNSvb0qneX0CgcXb-76">
          <mxGeometry relative="1" as="geometry">
            <mxPoint x="-145" y="310" as="sourcePoint" />
            <mxPoint x="50" y="325" as="targetPoint" />
            <Array as="points">
              <mxPoint x="-100" y="310" />
              <mxPoint x="-100" y="310" />
            </Array>
          </mxGeometry>
        </mxCell>
        <mxCell id="IcoIcNSvb0qneX0CgcXb-62" value="GoogleMap(Set&amp;lt;Marker&amp;gt; markers)" style="edgeLabel;html=1;align=center;verticalAlign=middle;resizable=0;points=[];" vertex="1" connectable="0" parent="IcoIcNSvb0qneX0CgcXb-61">
          <mxGeometry x="0.1485" y="-1" relative="1" as="geometry">
            <mxPoint x="-14" y="-14" as="offset" />
          </mxGeometry>
        </mxCell>
        <mxCell id="IcoIcNSvb0qneX0CgcXb-27" value="AppManager" style="shape=umlLifeline;perimeter=lifelinePerimeter;whiteSpace=wrap;html=1;container=1;dropTarget=0;collapsible=0;recursiveResize=0;outlineConnect=0;portConstraint=eastwest;newEdgeStyle={&quot;curved&quot;:0,&quot;rounded&quot;:0};fillColor=#eb9f4c;" vertex="1" parent="1">
          <mxGeometry x="790" y="120" width="100" height="760" as="geometry" />
        </mxCell>
        <mxCell id="IcoIcNSvb0qneX0CgcXb-63" value="" style="html=1;points=[[0,0,0,0,5],[0,1,0,0,-5],[1,0,0,0,5],[1,1,0,0,-5]];perimeter=orthogonalPerimeter;outlineConnect=0;targetShapes=umlLifeline;portConstraint=eastwest;newEdgeStyle={&quot;curved&quot;:0,&quot;rounded&quot;:0};fillColor=#eb9f4c;" vertex="1" parent="IcoIcNSvb0qneX0CgcXb-27">
          <mxGeometry x="45" y="100" width="10" height="150" as="geometry" />
        </mxCell>
        <mxCell id="IcoIcNSvb0qneX0CgcXb-39" value="Click on addLocation button" style="html=1;verticalAlign=bottom;endArrow=block;curved=0;rounded=0;" edge="1" parent="1">
          <mxGeometry x="-0.027" relative="1" as="geometry">
            <mxPoint x="45" y="570" as="sourcePoint" />
            <mxPoint x="235" y="570" as="targetPoint" />
            <Array as="points">
              <mxPoint x="215" y="570" />
            </Array>
            <mxPoint as="offset" />
          </mxGeometry>
        </mxCell>
        <mxCell id="IcoIcNSvb0qneX0CgcXb-64" style="edgeStyle=orthogonalEdgeStyle;rounded=0;orthogonalLoop=1;jettySize=auto;html=1;curved=0;entryX=0;entryY=0;entryDx=0;entryDy=5;entryPerimeter=0;" edge="1" parent="1" source="IcoIcNSvb0qneX0CgcXb-4" target="IcoIcNSvb0qneX0CgcXb-63">
          <mxGeometry relative="1" as="geometry">
            <mxPoint x="250" y="230" as="sourcePoint" />
            <mxPoint x="435" y="225" as="targetPoint" />
            <Array as="points">
              <mxPoint x="450" y="225" />
              <mxPoint x="450" y="225" />
            </Array>
          </mxGeometry>
        </mxCell>
        <mxCell id="IcoIcNSvb0qneX0CgcXb-65" value="getCurrentTale()" style="edgeLabel;html=1;align=center;verticalAlign=middle;resizable=0;points=[];" vertex="1" connectable="0" parent="IcoIcNSvb0qneX0CgcXb-64">
          <mxGeometry x="0.1485" y="-1" relative="1" as="geometry">
            <mxPoint x="-44" y="-16" as="offset" />
          </mxGeometry>
        </mxCell>
        <mxCell id="IcoIcNSvb0qneX0CgcXb-68" style="edgeStyle=orthogonalEdgeStyle;rounded=0;orthogonalLoop=1;jettySize=auto;html=1;curved=0;exitX=0;exitY=1;exitDx=0;exitDy=-5;exitPerimeter=0;" edge="1" parent="1" source="IcoIcNSvb0qneX0CgcXb-76" target="IcoIcNSvb0qneX0CgcXb-4">
          <mxGeometry relative="1" as="geometry">
            <mxPoint x="430" y="480" as="sourcePoint" />
            <mxPoint x="240" y="480" as="targetPoint" />
            <Array as="points">
              <mxPoint x="290" y="485" />
              <mxPoint x="290" y="485" />
            </Array>
          </mxGeometry>
        </mxCell>
        <mxCell id="IcoIcNSvb0qneX0CgcXb-69" value="show google map with markers" style="edgeLabel;html=1;align=center;verticalAlign=middle;resizable=0;points=[];" vertex="1" connectable="0" parent="IcoIcNSvb0qneX0CgcXb-68">
          <mxGeometry x="0.1485" y="-1" relative="1" as="geometry">
            <mxPoint x="19" y="-14" as="offset" />
          </mxGeometry>
        </mxCell>
        <mxCell id="IcoIcNSvb0qneX0CgcXb-70" value="" style="html=1;verticalAlign=bottom;endArrow=open;dashed=1;endSize=8;curved=0;rounded=0;" edge="1" parent="1" source="IcoIcNSvb0qneX0CgcXb-63">
          <mxGeometry x="-0.0016" relative="1" as="geometry">
            <mxPoint x="245" y="270" as="targetPoint" />
            <mxPoint x="950" y="270" as="sourcePoint" />
            <mxPoint as="offset" />
          </mxGeometry>
        </mxCell>
        <mxCell id="IcoIcNSvb0qneX0CgcXb-71" value="return TaleModel" style="edgeLabel;html=1;align=center;verticalAlign=middle;resizable=0;points=[];" vertex="1" connectable="0" parent="IcoIcNSvb0qneX0CgcXb-70">
          <mxGeometry x="-0.1202" y="2" relative="1" as="geometry">
            <mxPoint x="-36" y="-12" as="offset" />
          </mxGeometry>
        </mxCell>
        <mxCell id="IcoIcNSvb0qneX0CgcXb-72" style="edgeStyle=orthogonalEdgeStyle;rounded=0;orthogonalLoop=1;jettySize=auto;html=1;curved=0;" edge="1" parent="1" target="IcoIcNSvb0qneX0CgcXb-63">
          <mxGeometry relative="1" as="geometry">
            <mxPoint x="245" y="320" as="sourcePoint" />
            <mxPoint x="1035" y="320" as="targetPoint" />
            <Array as="points">
              <mxPoint x="245" y="321" />
            </Array>
          </mxGeometry>
        </mxCell>
        <mxCell id="IcoIcNSvb0qneX0CgcXb-73" value="getCurrentTaleLocations()" style="edgeLabel;html=1;align=center;verticalAlign=middle;resizable=0;points=[];" vertex="1" connectable="0" parent="IcoIcNSvb0qneX0CgcXb-72">
          <mxGeometry x="0.1485" y="-1" relative="1" as="geometry">
            <mxPoint x="-43" y="-12" as="offset" />
          </mxGeometry>
        </mxCell>
        <mxCell id="IcoIcNSvb0qneX0CgcXb-74" value="" style="html=1;verticalAlign=bottom;endArrow=open;dashed=1;endSize=8;curved=0;rounded=0;" edge="1" parent="1" source="IcoIcNSvb0qneX0CgcXb-63">
          <mxGeometry x="-0.0016" relative="1" as="geometry">
            <mxPoint x="245" y="365" as="targetPoint" />
            <mxPoint x="1035" y="365" as="sourcePoint" />
            <mxPoint as="offset" />
          </mxGeometry>
        </mxCell>
        <mxCell id="IcoIcNSvb0qneX0CgcXb-75" value="return List&amp;lt;Tuple&amp;lt;String, LatLng&amp;gt;&amp;gt;" style="edgeLabel;html=1;align=center;verticalAlign=middle;resizable=0;points=[];" vertex="1" connectable="0" parent="IcoIcNSvb0qneX0CgcXb-74">
          <mxGeometry x="-0.1202" y="2" relative="1" as="geometry">
            <mxPoint x="-36" y="-12" as="offset" />
          </mxGeometry>
        </mxCell>
        <mxCell id="IcoIcNSvb0qneX0CgcXb-79" style="edgeStyle=orthogonalEdgeStyle;rounded=0;orthogonalLoop=1;jettySize=auto;html=1;curved=0;" edge="1" parent="1">
          <mxGeometry relative="1" as="geometry">
            <mxPoint x="235" y="509.9999999999999" as="sourcePoint" />
            <mxPoint x="45" y="509.9999999999999" as="targetPoint" />
            <Array as="points">
              <mxPoint x="190" y="510" />
              <mxPoint x="190" y="510" />
            </Array>
          </mxGeometry>
        </mxCell>
        <mxCell id="IcoIcNSvb0qneX0CgcXb-80" value="Show TaleInfoPage UI&amp;nbsp;&lt;br&gt;with the marked map" style="edgeLabel;html=1;align=center;verticalAlign=middle;resizable=0;points=[];" vertex="1" connectable="0" parent="IcoIcNSvb0qneX0CgcXb-79">
          <mxGeometry x="0.1485" y="-1" relative="1" as="geometry">
            <mxPoint x="19" y="-14" as="offset" />
          </mxGeometry>
        </mxCell>
        <mxCell id="IcoIcNSvb0qneX0CgcXb-87" style="edgeStyle=orthogonalEdgeStyle;rounded=0;orthogonalLoop=1;jettySize=auto;html=1;curved=0;entryX=0;entryY=0;entryDx=0;entryDy=5;entryPerimeter=0;" edge="1" parent="1" target="IcoIcNSvb0qneX0CgcXb-82">
          <mxGeometry relative="1" as="geometry">
            <mxPoint x="244.99999999999977" y="585" as="sourcePoint" />
            <mxPoint x="440" y="590" as="targetPoint" />
            <Array as="points">
              <mxPoint x="440" y="585" />
              <mxPoint x="440" y="585" />
            </Array>
          </mxGeometry>
        </mxCell>
        <mxCell id="IcoIcNSvb0qneX0CgcXb-88" value="Get Map Screen" style="edgeLabel;html=1;align=center;verticalAlign=middle;resizable=0;points=[];" vertex="1" connectable="0" parent="IcoIcNSvb0qneX0CgcXb-87">
          <mxGeometry x="0.1485" y="-1" relative="1" as="geometry">
            <mxPoint x="-89" y="-14" as="offset" />
          </mxGeometry>
        </mxCell>
        <mxCell id="IcoIcNSvb0qneX0CgcXb-89" value="" style="html=1;verticalAlign=bottom;endArrow=open;dashed=1;endSize=8;curved=0;rounded=0;exitX=0;exitY=1;exitDx=0;exitDy=-5;exitPerimeter=0;" edge="1" parent="1" source="IcoIcNSvb0qneX0CgcXb-82">
          <mxGeometry x="-0.0016" relative="1" as="geometry">
            <mxPoint x="244.99999999999977" y="640" as="targetPoint" />
            <mxPoint x="940" y="650" as="sourcePoint" />
            <mxPoint as="offset" />
          </mxGeometry>
        </mxCell>
        <mxCell id="IcoIcNSvb0qneX0CgcXb-90" value="return" style="edgeLabel;html=1;align=center;verticalAlign=middle;resizable=0;points=[];" vertex="1" connectable="0" parent="IcoIcNSvb0qneX0CgcXb-89">
          <mxGeometry x="-0.1202" y="2" relative="1" as="geometry">
            <mxPoint x="7" y="-12" as="offset" />
          </mxGeometry>
        </mxCell>
        <mxCell id="IcoIcNSvb0qneX0CgcXb-91" style="edgeStyle=orthogonalEdgeStyle;rounded=0;orthogonalLoop=1;jettySize=auto;html=1;curved=0;" edge="1" parent="1">
          <mxGeometry relative="1" as="geometry">
            <mxPoint x="235" y="660" as="sourcePoint" />
            <mxPoint x="45" y="660" as="targetPoint" />
            <Array as="points">
              <mxPoint x="190" y="660" />
              <mxPoint x="190" y="660" />
            </Array>
          </mxGeometry>
        </mxCell>
        <mxCell id="IcoIcNSvb0qneX0CgcXb-92" value="Show Map Screen&amp;nbsp;&lt;br&gt;with marked locations" style="edgeLabel;html=1;align=center;verticalAlign=middle;resizable=0;points=[];" vertex="1" connectable="0" parent="IcoIcNSvb0qneX0CgcXb-91">
          <mxGeometry x="0.1485" y="-1" relative="1" as="geometry">
            <mxPoint x="19" y="-14" as="offset" />
          </mxGeometry>
        </mxCell>
        <mxCell id="IcoIcNSvb0qneX0CgcXb-94" value="Click on close button" style="html=1;verticalAlign=bottom;endArrow=block;curved=0;rounded=0;" edge="1" parent="1" source="IcoIcNSvb0qneX0CgcXb-2" target="IcoIcNSvb0qneX0CgcXb-4">
          <mxGeometry x="-0.027" relative="1" as="geometry">
            <mxPoint x="40" y="720" as="sourcePoint" />
            <mxPoint x="230" y="720" as="targetPoint" />
            <Array as="points">
              <mxPoint x="210" y="720" />
            </Array>
            <mxPoint as="offset" />
          </mxGeometry>
        </mxCell>
        <mxCell id="IcoIcNSvb0qneX0CgcXb-95" style="edgeStyle=orthogonalEdgeStyle;rounded=0;orthogonalLoop=1;jettySize=auto;html=1;curved=0;entryX=0;entryY=0;entryDx=0;entryDy=5;entryPerimeter=0;" edge="1" parent="1" target="IcoIcNSvb0qneX0CgcXb-93">
          <mxGeometry relative="1" as="geometry">
            <mxPoint x="244.99999999999977" y="740" as="sourcePoint" />
            <mxPoint x="635" y="740" as="targetPoint" />
            <Array as="points">
              <mxPoint x="245" y="735" />
            </Array>
          </mxGeometry>
        </mxCell>
        <mxCell id="IcoIcNSvb0qneX0CgcXb-96" value="Close Map Screen" style="edgeLabel;html=1;align=center;verticalAlign=middle;resizable=0;points=[];" vertex="1" connectable="0" parent="IcoIcNSvb0qneX0CgcXb-95">
          <mxGeometry x="0.1485" y="-1" relative="1" as="geometry">
            <mxPoint x="-89" y="-14" as="offset" />
          </mxGeometry>
        </mxCell>
        <mxCell id="IcoIcNSvb0qneX0CgcXb-99" value="" style="html=1;verticalAlign=bottom;endArrow=open;dashed=1;endSize=8;curved=0;rounded=0;exitX=0;exitY=1;exitDx=0;exitDy=-5;exitPerimeter=0;" edge="1" parent="1">
          <mxGeometry x="-0.0016" relative="1" as="geometry">
            <mxPoint x="244.99999999999977" y="790" as="targetPoint" />
            <mxPoint x="635" y="790" as="sourcePoint" />
            <mxPoint as="offset" />
          </mxGeometry>
        </mxCell>
        <mxCell id="IcoIcNSvb0qneX0CgcXb-100" value="return" style="edgeLabel;html=1;align=center;verticalAlign=middle;resizable=0;points=[];" vertex="1" connectable="0" parent="IcoIcNSvb0qneX0CgcXb-99">
          <mxGeometry x="-0.1202" y="2" relative="1" as="geometry">
            <mxPoint x="7" y="-12" as="offset" />
          </mxGeometry>
        </mxCell>
        <mxCell id="IcoIcNSvb0qneX0CgcXb-101" style="edgeStyle=orthogonalEdgeStyle;rounded=0;orthogonalLoop=1;jettySize=auto;html=1;curved=0;" edge="1" parent="1">
          <mxGeometry relative="1" as="geometry">
            <mxPoint x="235" y="810" as="sourcePoint" />
            <mxPoint x="45" y="810" as="targetPoint" />
            <Array as="points">
              <mxPoint x="90" y="810" />
              <mxPoint x="90" y="810" />
            </Array>
          </mxGeometry>
        </mxCell>
        <mxCell id="IcoIcNSvb0qneX0CgcXb-102" value="Show TaleInfoPage UI&amp;nbsp;&lt;br&gt;with the marked map" style="edgeLabel;html=1;align=center;verticalAlign=middle;resizable=0;points=[];" vertex="1" connectable="0" parent="IcoIcNSvb0qneX0CgcXb-101">
          <mxGeometry x="0.1485" y="-1" relative="1" as="geometry">
            <mxPoint x="19" y="-14" as="offset" />
          </mxGeometry>
        </mxCell>
      </root>
    </mxGraphModel>
  </diagram>
</mxfile>
